# This file uses centimeters as units for non-parametric coordinates.

mtllib camshaft_thingy.mtl
v 1.161668 -1.000000 -0.309017
v 0.988174 -1.000000 -0.587786
v 0.717951 -1.000000 -0.809017
v 0.377449 -1.000000 -0.951057
v 0.000000 -1.000000 -1.000000
v -0.720291 -1.000000 -0.951057
v -1.240679 -1.000000 -0.803541
v -1.890885 -1.000000 -0.583203
v -2.356695 -1.000000 -0.176333
v -2.416815 -1.000000 -0.000000
v -2.356695 -1.000000 0.176333
v -1.890885 -1.000000 0.583203
v -1.240679 -1.000000 0.803541
v -0.720291 -1.000000 0.951057
v -0.000000 -1.000000 1.000000
v 0.377449 -1.000000 0.951057
v 0.717950 -1.000000 0.809017
v 0.988174 -1.000000 0.587785
v 1.161668 -1.000000 0.309017
v 1.221450 -1.000000 0.000000
v 0.110904 -1.000000 0.000000
v -0.227288 -1.000000 -0.593700
v -0.360145 -1.000000 -0.975529
v 0.000000 -1.000000 -0.500000
v -0.360145 -1.000000 -0.475528
v -0.577129 -1.000000 -0.495792
v -0.980485 -1.000000 -0.880199
v -0.620340 -1.000000 -0.381227
v -0.873038 -1.000000 -0.372540
v -1.504774 -1.000000 -0.716988
v -0.959754 -1.000000 -0.291602
v -1.504876 -1.000000 -0.186224
v -2.206422 -1.000000 -0.340590
v -1.606312 -1.000000 -0.088167
v -1.694079 -1.000000 -0.047097
v -2.397664 -1.000000 -0.088167
v -1.647280 -1.000000 -0.000000
v -1.694079 -1.000000 0.047097
v -2.397664 -1.000000 0.088166
v -1.606312 -1.000000 0.088166
v -1.504876 -1.000000 0.186224
v -2.206421 -1.000000 0.340590
v -0.959754 -1.000000 0.291602
v -0.873039 -1.000000 0.372540
v -1.504774 -1.000000 0.716988
v -0.620340 -1.000000 0.381227
v -0.577128 -1.000000 0.495792
v -0.980485 -1.000000 0.880199
v -0.360145 -1.000000 0.475528
v -0.227288 -1.000000 0.593700
v -0.360145 -1.000000 0.975528
v -0.000000 -1.000000 0.500000
v 1.161668 -1.691927 -0.309017
v 0.988174 -1.691927 -0.587786
v 0.110904 -1.691927 0.000000
v 0.717951 -1.691927 -0.809017
v 0.377449 -1.691927 -0.951057
v 0.000000 -1.691927 -1.000000
v 0.000000 -1.691927 -0.500000
v -0.360145 -1.691927 -0.475528
v -0.720291 -1.691927 -0.951057
v -0.360145 -1.691927 -0.975529
v -0.227288 -1.691927 -0.593700
v -0.620340 -1.691927 -0.381227
v -1.240679 -1.691927 -0.803541
v -0.980485 -1.691927 -0.880199
v -0.577129 -1.691927 -0.495792
v -0.959754 -1.691927 -0.291602
v -1.890885 -1.691927 -0.583203
v -1.504774 -1.691927 -0.716988
v -0.873038 -1.691927 -0.372540
v -1.606312 -1.691927 -0.088167
v -2.356695 -1.691927 -0.176333
v -2.206422 -1.691927 -0.340590
v -1.504876 -1.691927 -0.186224
v -1.647280 -1.691927 -0.000000
v -2.416815 -1.691927 -0.000000
v -2.397664 -1.691927 -0.088167
v -1.694079 -1.691927 -0.047097
v -1.606312 -1.691927 0.088166
v -2.356695 -1.691927 0.176333
v -2.397664 -1.691927 0.088166
v -1.694079 -1.691927 0.047097
v -0.959754 -1.691927 0.291602
v -1.890885 -1.691927 0.583203
v -2.206421 -1.691927 0.340590
v -1.504876 -1.691927 0.186224
v -0.620340 -1.691927 0.381227
v -1.240679 -1.691927 0.803541
v -1.504774 -1.691927 0.716988
v -0.873039 -1.691927 0.372540
v -0.360145 -1.691927 0.475528
v -0.720291 -1.691927 0.951057
v -0.980485 -1.691927 0.880199
v -0.577128 -1.691927 0.495792
v -0.000000 -1.691927 0.500000
v -0.000000 -1.691927 1.000000
v -0.360145 -1.691927 0.975528
v -0.227288 -1.691927 0.593700
v 0.377449 -1.691927 0.951057
v 0.717950 -1.691927 0.809017
v 0.988174 -1.691927 0.587785
v 1.161668 -1.691927 0.309017
v 1.221450 -1.691927 0.000000
vt 0.648603 0.107966
vt 0.626409 0.064408
vt 0.591842 0.029841
vt 0.548284 0.007647
vt 0.500000 -0.000000
vt 0.451716 0.007647
vt 0.408159 0.029841
vt 0.373591 0.064409
vt 0.351397 0.107966
vt 0.343750 0.156250
vt 0.351397 0.204534
vt 0.373591 0.248091
vt 0.408159 0.282659
vt 0.451716 0.304853
vt 0.500000 0.312500
vt 0.548284 0.304853
vt 0.591841 0.282659
vt 0.626409 0.248091
vt 0.648603 0.204534
vt 0.656250 0.156250
vt 0.500000 0.150000
vt 0.484764 0.061042
vt 0.475858 0.003824
vt 0.500000 0.075000
vt 0.475858 0.078824
vt 0.458676 0.073956
vt 0.429937 0.018744
vt 0.454079 0.089921
vt 0.436767 0.091815
vt 0.390875 0.047125
vt 0.436796 0.107204
vt 0.422845 0.115180
vt 0.362494 0.086187
vt 0.425699 0.128983
vt 0.418128 0.140460
vt 0.347574 0.132108
vt 0.421875 0.153125
vt 0.418128 0.166253
vt 0.347574 0.180392
vt 0.425699 0.177267
vt 0.422845 0.191797
vt 0.362494 0.226313
vt 0.436796 0.199046
vt 0.436767 0.215344
vt 0.390875 0.265375
vt 0.454079 0.216329
vt 0.458676 0.233314
vt 0.429937 0.293756
vt 0.475858 0.227426
vt 0.484764 0.246573
vt 0.475858 0.308676
vt 0.500000 0.231250
vt 0.626409 0.064408
vt 0.648603 0.107966
vt 0.500000 0.150000
vt 0.591842 0.029841
vt 0.548284 0.007647
vt 0.500000 -0.000000
vt 0.500000 0.075000
vt 0.475858 0.078824
vt 0.451716 0.007647
vt 0.475858 0.003824
vt 0.484764 0.061042
vt 0.454079 0.089921
vt 0.408159 0.029841
vt 0.429937 0.018744
vt 0.458676 0.073956
vt 0.436796 0.107204
vt 0.373591 0.064409
vt 0.390875 0.047125
vt 0.436767 0.091815
vt 0.425699 0.128983
vt 0.351397 0.107966
vt 0.362494 0.086187
vt 0.422845 0.115180
vt 0.421875 0.153125
vt 0.343750 0.156250
vt 0.347574 0.132108
vt 0.418128 0.140460
vt 0.425699 0.177267
vt 0.351397 0.204534
vt 0.347574 0.180392
vt 0.418128 0.166253
vt 0.436796 0.199046
vt 0.373591 0.248091
vt 0.362494 0.226313
vt 0.422845 0.191797
vt 0.454079 0.216329
vt 0.408159 0.282659
vt 0.390875 0.265375
vt 0.436767 0.215344
vt 0.475858 0.227426
vt 0.451716 0.304853
vt 0.429937 0.293756
vt 0.458676 0.233314
vt 0.500000 0.231250
vt 0.500000 0.312500
vt 0.475858 0.308676
vt 0.484764 0.246573
vt 0.548284 0.304853
vt 0.591841 0.282659
vt 0.626409 0.248091
vt 0.648603 0.204534
vt 0.656250 0.156250
vt 0.626409 0.064408
vt 0.648603 0.107966
vt 0.591842 0.029841
vt 0.548284 0.007647
vt 0.500000 -0.000000
vt 0.451716 0.007647
vt 0.475858 0.003824
vt 0.408159 0.029841
vt 0.429937 0.018744
vt 0.373591 0.064409
vt 0.390875 0.047125
vt 0.351397 0.107966
vt 0.362494 0.086187
vt 0.343750 0.156250
vt 0.347574 0.132108
vt 0.351397 0.204534
vt 0.347574 0.180392
vt 0.373591 0.248091
vt 0.362494 0.226313
vt 0.408159 0.282659
vt 0.390875 0.265375
vt 0.451716 0.304853
vt 0.429937 0.293756
vt 0.500000 0.312500
vt 0.475858 0.308676
vt 0.548284 0.304853
vt 0.591841 0.282659
vt 0.626409 0.248091
vt 0.648603 0.204534
vt 0.656250 0.156250
vn 0.000000 -1.000000 -0.000000
vn 0.000000 -1.000000 0.000000
vn -0.000000 -1.000000 0.000000
vn 0.000000 -1.000000 0.000000
vn 0.000000 -1.000000 0.000000
vn 0.000000 -1.000000 -0.000000
vn 0.000000 -1.000000 0.000000
vn 0.000000 -1.000000 0.000000
vn 0.000000 -1.000000 0.000000
vn 0.000000 -1.000000 0.000000
vn 0.000000 -1.000000 0.000000
vn -0.000000 -1.000000 -0.000000
vn -0.000000 -1.000000 -0.000001
vn 0.000000 -1.000000 0.000000
vn 0.000000 -1.000000 0.000000
vn 0.000000 -1.000000 -0.000000
vn 0.000000 -1.000000 -0.000000
vn 0.000000 -1.000000 0.000000
vn 0.000000 -1.000000 0.000000
vn 0.000000 -1.000000 -0.000000
vn 0.000000 -1.000000 0.000000
vn 0.000000 -1.000000 -0.000000
vn 0.000000 -1.000000 -0.000000
vn 0.000000 -1.000000 -0.000000
vn 0.000000 -1.000000 -0.000000
vn 0.000000 -1.000000 0.000001
vn 0.000000 -1.000000 0.000001
vn 0.000000 -1.000000 0.000000
vn 0.000000 -1.000000 -0.000000
vn 0.000000 -1.000000 -0.000001
vn 0.000000 -1.000000 -0.000001
vn 0.000000 -1.000000 -0.000000
vn 0.000000 -1.000000 -0.000000
vn 0.000000 -1.000000 -0.000000
vn 0.000000 -1.000000 -0.000000
vn 0.000000 -1.000000 0.000000
vn 0.000000 -1.000000 0.000000
vn 0.000000 -1.000000 -0.000000
vn 0.000000 -1.000000 -0.000000
vn 0.000000 -1.000000 0.000000
vn 0.000000 -1.000000 0.000000
vn 0.000000 -1.000000 0.000000
vn 0.000000 -1.000000 0.000000
vn 0.000000 -1.000000 -0.000000
vn 0.000000 -1.000000 -0.000000
vn 0.000000 -1.000000 -0.000000
vn 0.000000 -1.000000 -0.000000
vn 0.000000 -1.000000 -0.000000
vn 0.000000 -1.000000 -0.000000
vn 0.000000 -1.000000 0.000000
vn 0.000000 -1.000000 0.000000
vn 0.000000 -1.000000 0.000000
vn 0.000000 -1.000000 -0.000000
vn 0.000000 -1.000000 -0.000000
vn 0.000000 -1.000000 0.000000
vn 0.000000 -1.000000 0.000000
vn 0.000000 -1.000000 0.000001
vn 0.000000 -1.000000 0.000001
vn -0.000000 -1.000000 0.000000
vn 0.000000 -1.000000 0.000000
vn -0.000000 -1.000000 -0.000001
vn -0.000000 -1.000000 -0.000001
vn -0.000000 -1.000000 0.000001
vn -0.000000 -1.000000 0.000000
vn -0.000000 -1.000000 -0.000000
vn -0.000000 -1.000000 -0.000000
vn -0.000000 -1.000000 0.000000
vn -0.000000 -1.000000 0.000001
vn 0.000000 -1.000000 0.000001
vn 0.000000 -1.000000 0.000001
vn 0.000000 -1.000000 -0.000000
vn 0.000000 -1.000000 -0.000001
vn 0.000000 -1.000000 -0.000001
vn 0.000000 -1.000000 -0.000001
vn 0.000000 -1.000000 0.000000
vn 0.000000 -1.000000 0.000001
vn 0.000000 -1.000000 0.000001
vn 0.000000 -1.000000 0.000001
vn 0.000000 -1.000000 -0.000001
vn 0.000000 -1.000000 -0.000001
vn 0.000000 -1.000000 -0.000000
vn 0.000000 -1.000000 -0.000000
vn 0.000000 -1.000000 -0.000000
vn 0.000000 -1.000000 0.000000
vn 0.000000 -1.000000 0.000001
vn 0.000000 -1.000000 0.000001
vn 0.000000 -1.000000 -0.000000
vn 0.000000 -1.000000 -0.000001
vn 0.000000 -1.000000 0.000000
vn 0.000000 -1.000000 0.000000
vn 0.000000 -1.000000 0.000000
vn 0.000000 1.000000 0.000000
vn 0.000000 1.000000 0.000000
vn 0.000000 1.000000 0.000000
vn 0.000000 1.000000 -0.000000
vn 0.000000 1.000000 -0.000000
vn 0.000000 1.000000 0.000000
vn 0.000000 1.000000 -0.000000
vn 0.000000 1.000000 0.000000
vn 0.000000 1.000000 0.000000
vn 0.000000 1.000000 0.000000
vn 0.000000 1.000000 0.000000
vn 0.000000 1.000000 0.000000
vn 0.000000 1.000000 0.000000
vn 0.000000 1.000000 0.000000
vn 0.000000 1.000000 0.000000
vn -0.000000 1.000000 -0.000000
vn -0.000000 1.000000 0.000000
vn -0.000000 1.000000 0.000000
vn -0.000000 1.000000 -0.000000
vn -0.000000 1.000000 0.000000
vn -0.000000 1.000000 0.000000
vn -0.000000 1.000000 0.000000
vn -0.000000 1.000000 0.000000
vn 0.000000 1.000000 0.000000
vn 0.000000 1.000000 0.000000
vn 0.000000 1.000000 0.000000
vn 0.000000 1.000000 0.000000
vn 0.000000 1.000000 0.000000
vn 0.000000 1.000000 0.000000
vn 0.000000 1.000000 0.000000
vn 0.000000 1.000000 0.000000
vn 0.000000 1.000000 0.000000
vn 0.000000 1.000000 0.000000
vn 0.000000 1.000000 0.000000
vn 0.000000 1.000000 0.000000
vn 0.000000 1.000000 0.000000
vn 0.000000 1.000000 0.000000
vn 0.000000 1.000000 0.000000
vn 0.000000 1.000000 0.000000
vn 0.000000 1.000000 0.000000
vn 0.000000 1.000000 0.000000
vn 0.000000 1.000000 0.000000
vn 0.000000 1.000000 0.000000
vn 0.000000 1.000000 -0.000000
vn 0.000000 1.000000 -0.000000
vn 0.000000 1.000000 -0.000000
vn 0.000000 1.000000 -0.000000
vn 0.000000 1.000000 0.000000
vn 0.000000 1.000000 0.000000
vn 0.000000 1.000000 0.000000
vn 0.000000 1.000000 0.000000
vn 0.000000 1.000000 0.000000
vn 0.000000 1.000000 0.000000
vn 0.000000 1.000000 0.000000
vn 0.000000 1.000000 -0.000000
vn 0.000000 1.000000 0.000000
vn 0.000000 1.000000 0.000000
vn 0.000000 1.000000 0.000000
vn 0.000000 1.000000 0.000000
vn 0.000000 1.000000 0.000000
vn 0.000000 1.000000 0.000000
vn 0.000000 1.000000 0.000000
vn 0.000000 1.000000 0.000000
vn 0.000000 1.000000 -0.000000
vn 0.000000 1.000000 -0.000000
vn 0.000000 1.000000 -0.000000
vn 0.000000 1.000000 -0.000000
vn 0.000000 1.000000 -0.000000
vn 0.000000 1.000000 0.000000
vn 0.000000 1.000000 0.000000
vn 0.000000 1.000000 0.000000
vn 0.000000 1.000000 0.000000
vn 0.000000 1.000000 0.000000
vn 0.000000 1.000000 0.000000
vn 0.000000 1.000000 0.000000
vn 0.000000 1.000000 0.000000
vn 0.000000 1.000000 0.000000
vn 0.000000 1.000000 0.000000
vn 0.000000 1.000000 0.000001
vn 0.000000 1.000000 0.000001
vn 0.000000 1.000000 0.000000
vn 0.000000 1.000000 0.000000
vn 0.000000 1.000000 0.000000
vn 0.000000 1.000000 0.000000
vn 0.000000 1.000000 0.000000
vn 0.000000 1.000000 0.000000
vn 0.000000 1.000000 0.000000
vn 0.000000 1.000000 0.000000
vn 0.000000 1.000000 0.000000
vn 0.000000 1.000000 0.000000
vn 0.000000 1.000000 0.000000
vn 0.849004 0.000000 -0.528386
vn 0.849004 0.000000 -0.528386
vn 0.849004 0.000000 -0.528386
vn 0.849004 0.000000 -0.528386
vn 0.633478 0.000000 -0.773761
vn 0.633478 0.000000 -0.773761
vn 0.633478 0.000000 -0.773761
vn 0.633478 0.000000 -0.773761
vn 0.384994 0.000000 -0.922919
vn 0.384994 0.000000 -0.922919
vn 0.384994 0.000000 -0.922919
vn 0.384994 0.000000 -0.922919
vn 0.128593 0.000000 -0.991698
vn 0.128593 0.000000 -0.991698
vn 0.128593 0.000000 -0.991698
vn 0.128593 0.000000 -0.991698
vn -0.067793 0.000000 -0.997699
vn -0.067793 0.000000 -0.997699
vn -0.067793 0.000000 -0.997699
vn -0.067793 0.000000 -0.997699
vn -0.282609 0.000000 -0.959235
vn -0.282609 0.000000 -0.959235
vn -0.282609 0.000000 -0.959235
vn -0.282609 0.000000 -0.959235
vn -0.327398 0.000000 -0.944887
vn -0.327398 0.000000 -0.944887
vn -0.327398 0.000000 -0.944887
vn -0.327398 0.000000 -0.944887
vn -0.737815 0.000000 -0.675003
vn -0.737815 0.000000 -0.675003
vn -0.737815 0.000000 -0.675003
vn -0.737815 0.000000 -0.675003
vn -0.977211 0.000000 -0.212270
vn -0.977211 0.000000 -0.212270
vn -0.977211 0.000000 -0.212270
vn -0.977211 0.000000 -0.212270
vn -0.906875 0.000000 0.421401
vn -0.906875 0.000000 0.421401
vn -0.906875 0.000000 0.421401
vn -0.906875 0.000000 0.421401
vn -0.609541 0.000000 0.792755
vn -0.609541 0.000000 0.792755
vn -0.609541 0.000000 0.792755
vn -0.609541 0.000000 0.792755
vn -0.311434 0.000000 0.950268
vn -0.311434 0.000000 0.950268
vn -0.311434 0.000000 0.950268
vn -0.311434 0.000000 0.950268
vn -0.262758 0.000000 0.964862
vn -0.262758 0.000000 0.964862
vn -0.262758 0.000000 0.964862
vn -0.262758 0.000000 0.964862
vn -0.067793 0.000000 0.997699
vn -0.067793 0.000000 0.997699
vn -0.067793 0.000000 0.997699
vn -0.067793 0.000000 0.997699
vn 0.128593 0.000000 0.991698
vn 0.128593 0.000000 0.991698
vn 0.128593 0.000000 0.991698
vn 0.128593 0.000000 0.991698
vn 0.384994 0.000000 0.922919
vn 0.384994 0.000000 0.922919
vn 0.384994 0.000000 0.922919
vn 0.384994 0.000000 0.922919
vn 0.633478 0.000000 0.773761
vn 0.633478 0.000000 0.773761
vn 0.633478 0.000000 0.773761
vn 0.633478 0.000000 0.773761
vn 0.849004 0.000000 0.528386
vn 0.849004 0.000000 0.528386
vn 0.849004 0.000000 0.528386
vn 0.849004 0.000000 0.528386
vn 0.981796 0.000000 0.189937
vn 0.981796 0.000000 0.189937
vn 0.981796 0.000000 0.189937
vn 0.981796 0.000000 0.189937
vn 0.981797 0.000000 -0.189935
vn 0.981797 0.000000 -0.189935
vn 0.981797 0.000000 -0.189935
vn 0.981797 0.000000 -0.189935
vn -0.067794 0.000000 -0.997699
vn -0.067794 0.000000 -0.997699
vn -0.067794 0.000000 -0.997699
vn -0.067794 0.000000 -0.997699
vn -0.262758 0.000000 -0.964862
vn -0.262758 0.000000 -0.964862
vn -0.262758 0.000000 -0.964862
vn -0.262758 0.000000 -0.964862
vn -0.311434 0.000000 -0.950268
vn -0.311434 0.000000 -0.950268
vn -0.311434 0.000000 -0.950268
vn -0.311434 0.000000 -0.950268
vn -0.609541 0.000000 -0.792755
vn -0.609541 0.000000 -0.792755
vn -0.609541 0.000000 -0.792755
vn -0.609541 0.000000 -0.792755
vn -0.906875 0.000000 -0.421401
vn -0.906875 0.000000 -0.421401
vn -0.906875 0.000000 -0.421401
vn -0.906875 0.000000 -0.421401
vn -0.977211 0.000000 0.212270
vn -0.977211 0.000000 0.212270
vn -0.977211 0.000000 0.212270
vn -0.977211 0.000000 0.212270
vn -0.737815 0.000000 0.675003
vn -0.737815 0.000000 0.675003
vn -0.737815 0.000000 0.675003
vn -0.737815 0.000000 0.675003
vn -0.327398 0.000000 0.944887
vn -0.327398 0.000000 0.944887
vn -0.327398 0.000000 0.944887
vn -0.327398 0.000000 0.944887
vn -0.282609 0.000000 0.959235
vn -0.282609 0.000000 0.959235
vn -0.282609 0.000000 0.959235
vn -0.282609 0.000000 0.959235
vn -0.067793 0.000000 0.997699
vn -0.067793 0.000000 0.997699
vn -0.067793 0.000000 0.997699
vn -0.067793 0.000000 0.997699
s 1
usemtl initialShadingGroup
f 54/105/1 53/106/2 55/21/3
f 56/107/4 54/105/1 55/21/3
f 57/108/5 56/107/4 55/21/3
f 58/109/6 57/108/5 55/21/3 59/24/7
s 2
f 60/25/8 61/110/9 62/111/10 63/22/11
s 3
f 64/28/12 65/112/13 66/113/14 67/26/15
s 4
f 68/31/16 69/114/17 70/115/18 71/29/19
s 5
f 72/34/20 73/116/21 74/117/22 75/32/23
s 6
f 76/37/24 77/118/25 78/119/26 79/35/27
s 7
f 80/40/28 81/120/29 82/121/30 83/38/31
s 8
f 84/43/32 85/122/33 86/123/34 87/41/35
s 9
f 88/46/36 89/124/37 90/125/38 91/44/39
s 10
f 92/49/40 93/126/41 94/127/42 95/47/43
s 1
f 96/52/44 97/128/45 98/129/46 99/50/47
f 100/130/48 97/128/45 96/52/44 55/21/3
f 101/131/49 100/130/48 55/21/3
f 102/132/50 101/131/49 55/21/3
f 103/133/51 102/132/50 55/21/3
f 104/134/52 103/133/51 55/21/3
f 53/106/2 104/134/52 55/21/3
f 62/111/53 58/109/6 59/24/7 63/22/54
f 59/24/7 55/21/3 60/25/55 63/22/56
s 2
f 66/113/57 61/110/9 60/25/8 67/26/58
s 1
f 60/25/55 55/21/3 64/28/59 67/26/60
s 3
f 70/115/61 65/112/13 64/28/12 71/29/62
s 1
f 64/28/59 55/21/3 68/31/63 71/29/64
s 4
f 74/117/65 69/114/17 68/31/16 75/32/66
s 1
f 68/31/63 55/21/3 72/34/67 75/32/68
s 5
f 78/119/69 73/116/21 72/34/20 79/35/70
s 1
f 72/34/67 55/21/3 76/37/71 79/35/72
s 6
f 82/121/73 77/118/25 76/37/24 83/38/74
s 1
f 76/37/71 55/21/3 80/40/75 83/38/76
s 7
f 86/123/77 81/120/29 80/40/28 87/41/78
s 1
f 80/40/75 55/21/3 84/43/79 87/41/80
s 8
f 90/125/81 85/122/33 84/43/32 91/44/82
s 1
f 84/43/79 55/21/3 88/46/83 91/44/84
s 9
f 94/127/85 89/124/37 88/46/36 95/47/86
s 1
f 88/46/83 55/21/3 92/49/87 95/47/88
s 10
f 98/129/89 93/126/41 92/49/40 99/50/90
s 1
f 92/49/87 55/21/3 96/52/44 99/50/91
s 12
f 2/53/92 21/55/93 1/54/94
f 3/56/95 21/55/93 2/53/92
f 4/57/96 21/55/93 3/56/95
f 5/58/97 24/59/98 21/55/93 4/57/96
s 13
f 25/60/99 22/63/100 23/62/101 6/61/102
s 14
f 28/64/103 26/67/104 27/66/105 7/65/106
s 15
f 31/68/107 29/71/108 30/70/109 8/69/110
s 16
f 34/72/111 32/75/112 33/74/113 9/73/114
s 17
f 37/76/115 35/79/116 36/78/117 10/77/118
s 18
f 40/80/119 38/83/120 39/82/121 11/81/122
s 19
f 43/84/123 41/87/124 42/86/125 12/85/126
s 20
f 46/88/127 44/91/128 45/90/129 13/89/130
s 21
f 49/92/131 47/95/132 48/94/133 14/93/134
s 12
f 52/96/135 50/99/136 51/98/137 15/97/138
f 16/100/139 21/55/93 52/96/135 15/97/138
f 17/101/140 21/55/93 16/100/139
f 18/102/141 21/55/93 17/101/140
f 19/103/142 21/55/93 18/102/141
f 20/104/143 21/55/93 19/103/142
f 1/54/94 21/55/93 20/104/143
f 23/62/144 22/63/145 24/59/98 5/58/97
f 24/59/98 22/63/146 25/60/147 21/55/93
s 13
f 27/66/148 26/67/149 25/60/99 6/61/102
s 12
f 25/60/147 26/67/150 28/64/151 21/55/93
s 14
f 30/70/152 29/71/153 28/64/103 7/65/106
s 12
f 28/64/151 29/71/154 31/68/155 21/55/93
s 15
f 33/74/156 32/75/157 31/68/107 8/69/110
s 12
f 31/68/155 32/75/158 34/72/159 21/55/93
s 16
f 36/78/160 35/79/161 34/72/111 9/73/114
s 12
f 34/72/159 35/79/162 37/76/163 21/55/93
s 17
f 39/82/164 38/83/165 37/76/115 10/77/118
s 12
f 37/76/163 38/83/166 40/80/167 21/55/93
s 18
f 42/86/168 41/87/169 40/80/119 11/81/122
s 12
f 40/80/167 41/87/170 43/84/171 21/55/93
s 19
f 45/90/172 44/91/173 43/84/123 12/85/126
s 12
f 43/84/171 44/91/174 46/88/175 21/55/93
s 20
f 48/94/176 47/95/177 46/88/127 13/89/130
s 12
f 46/88/175 47/95/178 49/92/179 21/55/93
s 21
f 51/98/180 50/99/181 49/92/131 14/93/134
s 12
f 49/92/179 50/99/182 52/96/135 21/55/93
s off
f 2/2/183 1/1/184 53/106/185 54/105/186
f 3/3/187 2/2/188 54/105/189 56/107/190
f 4/4/191 3/3/192 56/107/193 57/108/194
f 5/5/195 4/4/196 57/108/197 58/109/198
f 6/6/199 23/23/200 62/111/201 61/110/202
f 7/7/203 27/27/204 66/113/205 65/112/206
f 8/8/207 30/30/208 70/115/209 69/114/210
f 9/9/211 33/33/212 74/117/213 73/116/214
f 10/10/215 36/36/216 78/119/217 77/118/218
f 11/11/219 39/39/220 82/121/221 81/120/222
f 12/12/223 42/42/224 86/123/225 85/122/226
f 13/13/227 45/45/228 90/125/229 89/124/230
f 14/14/231 48/48/232 94/127/233 93/126/234
f 15/15/235 51/51/236 98/129/237 97/128/238
f 16/16/239 15/15/240 97/128/241 100/130/242
f 17/17/243 16/16/244 100/130/245 101/131/246
f 18/18/247 17/17/248 101/131/249 102/132/250
f 19/19/251 18/18/252 102/132/253 103/133/254
f 20/20/255 19/19/256 103/133/257 104/134/258
f 1/1/259 20/20/260 104/134/261 53/106/262
f 23/23/263 5/5/264 58/109/265 62/111/266
f 27/27/267 6/6/268 61/110/269 66/113/270
f 30/30/271 7/7/272 65/112/273 70/115/274
f 33/33/275 8/8/276 69/114/277 74/117/278
f 36/36/279 9/9/280 73/116/281 78/119/282
f 39/39/283 10/10/284 77/118/285 82/121/286
f 42/42/287 11/11/288 81/120/289 86/123/290
f 45/45/291 12/12/292 85/122/293 90/125/294
f 48/48/295 13/13/296 89/124/297 94/127/298
f 51/51/299 14/14/300 93/126/301 98/129/302
